<svg width="32" height="32" viewBox="0 0 32 32" fill="none" xmlns="http://www.w3.org/2000/svg">
<circle cx="16" cy="16" r="15" fill="#FA8745" stroke="black" stroke-width="2"/>
<path d="M13.3631 21.4267L20.427 14.3628C21.3653 14.4748 22.345 14.1717 23.0652 13.4507C24.0479 12.468 24.2554 11.0056 23.6897 9.81936L21.4956 12.0125L19.9869 10.5028L22.179 8.30967C20.9927 7.74497 19.5293 7.95252 18.5477 8.93419C17.8267 9.65526 17.5236 10.634 17.6365 11.5733L10.5745 18.6372C9.6353 18.5253 8.65555 18.8284 7.93536 19.5484C6.68821 20.7956 6.68821 22.8177 7.93536 24.0639C9.18252 25.311 11.2047 25.311 12.4508 24.0639C13.1719 23.3438 13.475 22.365 13.363 21.4267H13.3631ZM9.77895 23.3554L8.64475 22.2212L9.05982 20.6719L10.6091 20.2568L11.7433 21.391L11.3282 22.9403L9.77895 23.3554Z" fill="black"/>
<path d="M13.3631 21.4267L20.427 14.3628C21.3653 14.4748 22.345 14.1717 23.0652 13.4507C24.0479 12.468 24.2554 11.0056 23.6897 9.81936L21.4956 12.0125L19.9869 10.5028L22.179 8.30967C20.9927 7.74497 19.5293 7.95252 18.5477 8.93419C17.8267 9.65526 17.5236 10.634 17.6365 11.5733L10.5745 18.6372C9.6353 18.5253 8.65555 18.8284 7.93536 19.5484C6.68821 20.7956 6.68821 22.8177 7.93536 24.0639C9.18252 25.311 11.2047 25.311 12.4508 24.0639C13.1719 23.3438 13.475 22.365 13.363 21.4267H13.3631ZM9.77895 23.3554L8.64475 22.2212L9.05982 20.6719L10.6091 20.2568L11.7433 21.391L11.3282 22.9403L9.77895 23.3554Z" fill="black"/>
<path d="M13.3631 11.5739C13.4751 10.6347 13.172 9.65498 12.4509 8.9348C11.4682 7.95214 10.0058 7.74462 8.81957 8.31028L11.0127 10.5034L9.50299 12.0131L7.31083 9.81998C6.74516 11.0063 6.95367 12.4697 7.93535 13.4513C8.65546 14.1714 9.63425 14.4754 10.5735 14.3635L12.2386 16.0276L15.0273 13.2389L13.3631 11.5739Z" fill="black"/>
<path d="M20.4261 18.6369L18.7619 16.9727L15.9733 19.7624L17.6365 21.4265C17.5245 22.3657 17.8276 23.3445 18.5486 24.0647C19.7958 25.3118 21.8172 25.3118 23.0641 24.0647C24.3111 22.8175 24.3113 20.7961 23.0641 19.5492C22.344 18.8281 21.3643 18.5241 20.426 18.637L20.4261 18.6369ZM21.2215 23.3552L19.6722 22.9401L19.2571 21.3909L20.3913 20.2567L21.9406 20.6718L22.3557 22.221L21.2215 23.3552Z" fill="black"/>
</svg>
