<svg id="Layer_1" data-name="Layer 1" xmlns="http://www.w3.org/2000/svg" viewBox="0 0 256 256"><defs><style>.cls-2{fill:#d33a2c}</style></defs><path d="M67.59 30.317l94.767-21.97 38.938 3.881 7.018 9.082s16.1 82.768 16.512 83.8-6.192 106.092-6.192 106.092L203.25 222.57 87.652 248.48l-30.015-9.207-11.145-9.907 9.081-53.253s0-48.092-.412-49.95-18.164-42.519-18.164-42.519L32.043 58.05l26.42-21.879z" fill="#fff"/><g id="S"><g id="Kasten"><path class="cls-2" d="M149.394 163.617a147.784 147.784 0 00-37.55-20.276 151.914 151.914 0 01-28.752-15.396q-32.185-22.422-32.185-55.627a57.022 57.022 0 0112.07-36.959 54.66 54.66 0 014.612-5.042L21.725 41.045A24.783 24.783 0 002.773 70.527l.017.075 37.978 164.091a24.783 24.783 0 0029.664 18.292l18.829-4.345-1.61-.16a181.096 181.096 0 01-36.369-15.664l19.633-43.88a87.437 87.437 0 0055.788 19.633c21.457 0 32.185-7.67 32.185-22.905a28.216 28.216 0 00-9.494-22.047zM253.137 185.664L215.16 21.573a24.783 24.783 0 00-29.718-18.56l-27.626 6.383q4.775.751 9.441 1.77a150.895 150.895 0 0135.726 12.82L186.89 66.902q-18.023-15.45-50.262-15.45-28.86 0-28.913 22.96a20.706 20.706 0 009.494 16.092 197.51 197.51 0 0040.554 19.633 126.81 126.81 0 0134.277 19.043 68.018 68.018 0 0110.729 10.729 66.248 66.248 0 0113.625 42.001 63.566 63.566 0 01-13.143 40.661l31.274-7.134a24.729 24.729 0 0018.658-29.58l-.045-.192z"/></g></g></svg>